<!DOCTYPE svg PUBLIC "-//W3C//DTD SVG 1.1//EN" "http://www.w3.org/Graphics/SVG/1.1/DTD/svg11.dtd">
<!-- Uploaded to: SVG Repo, www.svgrepo.com, Transformed by: SVG Repo Mixer Tools -->
<svg width="256px" height="256px" viewBox="-2.4 -2.4 28.80 28.80" xmlns="http://www.w3.org/2000/svg" fill="#000000" stroke="#000000" stroke-width="0.00024000000000000003">
<g id="SVGRepo_bgCarrier" stroke-width="0"/>
<g id="SVGRepo_tracerCarrier" stroke-linecap="round" stroke-linejoin="round" stroke="#CCCCCC" stroke-width="0.048"/>
<g id="SVGRepo_iconCarrier">
<path d="M21.5 4h-19A1.504 1.504 0 0 0 1 5.5v13A1.5 1.5 0 0 0 2.5 20h19a1.5 1.5 0 0 0 1.5-1.5v-13A1.504 1.504 0 0 0 21.5 4zM12 12.07L2.82 5h18.36zm-2.846-.93L2 18.292V5.631zm.798.615L12 13.33l2.048-1.576L21.293 19H2.707zm4.894-.616L22 5.631v12.662z"/>
<path fill="none" d="M0 0h24v24H0z"/>
</g>
</svg>